<svg xmlns="http://www.w3.org/2000/svg" viewBox="0 0 720 720" role="img" aria-labelledby="t d">
<title id="t">KOFAD IMPEX — Forward K</title><desc id="d">A bespoke K monogram built from a trading route and package geometry.</desc>
<rect width="720" height="720" rx="56" fill="#F8FAFC"/>
<g transform="translate(0 8)">
  <path d="M188 122V398" stroke="#0B2F4B" stroke-width="44" stroke-linecap="round"/>
  <path d="M205 258L390 124" stroke="#D99A24" stroke-width="40" stroke-linecap="round"/>
  <path d="M205 258L414 404" stroke="#0E8993" stroke-width="40" stroke-linecap="round"/>
  <path d="M365 127L423 118L399 173" fill="none" stroke="#D99A24" stroke-width="18" stroke-linecap="round" stroke-linejoin="round"/>
  <path d="M383 382L432 416L374 425" fill="none" stroke="#0E8993" stroke-width="18" stroke-linecap="round" stroke-linejoin="round"/>
  <path d="M224 210L278 184L332 210L278 238Z" fill="#F2B23A"/>
  <path d="M224 210L278 238V294L224 266Z" fill="#0B2F4B"/>
  <path d="M332 210L278 238V294L332 266Z" fill="#0E8993"/>
</g>
<text x="360" y="522" text-anchor="middle" fill="#0B2F4B" font-family="Aptos,Segoe UI,Arial,sans-serif" font-size="92" font-weight="800" letter-spacing="7">KOFAD</text>
<g transform="translate(154 560)">
  <line x1="0" y1="18" x2="78" y2="18" stroke="#D99A24" stroke-width="4"/>
  <text x="206" y="30" text-anchor="middle" fill="#5D7080" font-family="Aptos,Segoe UI,Arial,sans-serif" font-size="28" font-weight="700" letter-spacing="10">IMPEX</text>
  <line x1="334" y1="18" x2="412" y2="18" stroke="#0E8993" stroke-width="4"/>
</g>
<text x="360" y="638" text-anchor="middle" fill="#7A8893" font-family="Aptos,Segoe UI,Arial,sans-serif" font-size="17" font-weight="600" letter-spacing="6">ENTERPRISE</text>
</svg>